<?xml version="1.0" encoding="UTF-8"?>
<!-- Fustun monogram: biscuit line art F with upward arrows and dots -->
<svg viewBox="0 0 512 512" xmlns="http://www.w3.org/2000/svg" role="img" aria-label="Fustun logo">
  <defs>
    <!-- Soft biscuit backdrop for large sizes -->
    <radialGradient id="bg" cx="50%" cy="32%" r="70%">
      <stop offset="0%" stop-color="#faf6f2"/>
      <stop offset="100%" stop-color="#e9d5bd"/>
    </radialGradient>
    <filter id="shadow" x="-20%" y="-20%" width="140%" height="140%">
      <feDropShadow dx="0" dy="6" stdDeviation="10" flood-color="#000" flood-opacity="0.08"/>
    </filter>
  </defs>

  <!-- Background vignette -->
  <rect width="512" height="512" fill="url(#bg)"/>
  <!-- White circle plate -->
  <g filter="url(#shadow)">
    <circle cx="256" cy="256" r="200" fill="#ffffff"/>
  </g>

  <!-- Monoline F with arrows and dots -->
  <g transform="translate(0,0)" stroke="#6b4f3b" stroke-width="14" fill="none" stroke-linecap="round" stroke-linejoin="round">
    <!-- F stem and top curve -->
    <path d="M196 392c42-12 68-44 68-88v-22m0 0h-52c-10 0-18-8-18-18s8-18 18-18h68c28 0 48-18 52-48h-68c-10 0-18-8-18-18s8-18 18-18h84c30 0 48-16 52-44h-112c-78 0-124 52-124 132v64c0 52-14 84-40 96"/>
    <!-- Up arrows (left and center) -->
    <path d="M182 332l28-44 28 44h-16v36"/>
    <path d="M252 304l28-44 28 44h-16v36"/>
    <!-- Accent dots -->
    <circle cx="318" cy="228" r="6" fill="#6b4f3b" stroke="none"/>
    <circle cx="192" cy="320" r="6" fill="#6b4f3b" stroke="none"/>
    <circle cx="216" cy="212" r="6" fill="#6b4f3b" stroke="none"/>
    <circle cx="352" cy="152" r="8" fill="#6b4f3b" stroke="none"/>
    <circle cx="256" cy="356" r="8" fill="#6b4f3b" stroke="none"/>
  </g>

  <!-- Tiny corner sparkle -->
  <g transform="translate(464,464)" fill="#f2e6d7">
    <path d="M16 0c0 8.8-7.2 16-16 16 8.8 0 16 7.2 16 16 0-8.8 7.2-16 16-16-8.8 0-16-7.2-16-16z"/>
  </g>
</svg>
